<svg width="28" height="26" viewBox="0 0 28 26" fill="none" xmlns="http://www.w3.org/2000/svg">
<path d="M1.36972 1.45723C2.12625 0.652417 3.39198 0.613278 4.19679 1.36981L26.0555 21.9172C26.8603 22.6738 26.8995 23.9395 26.1429 24.7443C25.3864 25.5491 24.1207 25.5883 23.3159 24.8317L1.45714 4.28431C0.652322 3.52777 0.613183 2.26205 1.36972 1.45723Z" fill="#A9A9A9"/>
<path d="M1.33691 24.2181C0.598445 23.3967 0.665701 22.1322 1.48713 21.3937L23.797 1.33709C24.6185 0.598628 25.883 0.665884 26.6215 1.48731C27.3599 2.30874 27.2927 3.57328 26.4713 4.31175L4.16134 24.3684C3.33992 25.1068 2.07537 25.0396 1.33691 24.2181Z" fill="#A9A9A9"/>
</svg>
