<svg width="215" height="291" fill="none" xmlns="http://www.w3.org/2000/svg"><path d="M69.0967 219.446v-42.11h21.071c42.1423 0 32.7773-23.395 22.8273-35.092H44.514c-4.2142 0-9.9502 5.848-12.2914 8.773v84.22l52.6773 54.392c26.6901 7.019 29.8501-14.621 28.0951-26.318l-43.8983-43.865ZM65.0895 22.2659C63.452 11.7329 70.6697 1.86771 81.2107.23149c10.541-1.63622 20.4133 5.57609 22.0513 16.10911l17.309 111.3424-38.7632 2.125L65.0895 22.2659ZM146.486 18.8751c1.733-10.51768 11.671-17.63986 22.197-15.90779 10.525 1.73208 17.653 11.66249 15.92 22.18019L166.279 136.33l-37.491-10.067 17.698-107.3879ZM182.272 193.893c7.197-7.599 19.196-7.929 26.801-.737 7.605 7.191 7.935 19.182.738 26.781l-20.278 21.411c-7.197 7.599-19.196 7.929-26.801.737-7.605-7.192-7.936-19.182-.738-26.781l20.278-21.411Z" fill="#A9A9A9"/><path d="M167.138 145.476c7.197-7.599 19.196-7.93 26.801-.738 7.604 7.192 7.935 19.182.738 26.781l-42.87 45.265c-7.198 7.599-19.197 7.929-26.802.737-7.604-7.191-7.935-19.182-.738-26.781l42.871-45.264ZM0 202.485c0-7.97 6.46653-14.432 14.4434-14.432h82.5337c7.9769 0 14.4429 6.462 14.4429 14.432 0 7.971-6.466 14.433-14.4429 14.433H14.4434C6.46654 216.918 0 210.456 0 202.485Z" fill="#A9A9A9"/></svg>